<?xml version="1.0" standalone="no"?>
<!DOCTYPE svg PUBLIC "-//W3C//DTD SVG 20010904//EN"
 "http://www.w3.org/TR/2001/REC-SVG-20010904/DTD/svg10.dtd">
<svg version="1.0" xmlns="http://www.w3.org/2000/svg"
 width="512.000000pt" height="512.000000pt" viewBox="0 0 512.000000 512.000000"
 preserveAspectRatio="xMidYMid meet">

<g transform="translate(0.000000,512.000000) scale(0.100000,-0.100000)"
fill="#000000" stroke="none">
<path d="M0 2560 l0 -2560 2560 0 2560 0 0 2560 0 2560 -2560 0 -2560 0 0
-2560z m3920 560 l0 -70 -95 0 -95 0 0 70 0 70 95 0 95 0 0 -70z m700 -225 c0
-228 3 -296 13 -299 6 -2 72 -18 145 -35 124 -30 277 -79 269 -87 -1 -2 -27 3
-57 11 -63 17 -344 75 -363 75 -9 0 -11 -36 -9 -150 l3 -150 -95 0 -96 0 0
161 0 161 33 -6 c17 -3 57 -8 87 -10 108 -10 -87 21 -300 48 -836 104 -1921
123 -2875 51 -302 -23 -753 -76 -708 -83 21 -3 22 -9 25 -105 3 -101 3 -102
28 -102 25 0 25 1 28 93 l3 92 95 0 96 0 -4 -104 c-3 -117 -15 -143 -79 -181
-28 -17 -52 -20 -139 -20 -87 0 -111 3 -139 20 -63 37 -76 65 -79 175 -4 112
-14 100 93 119 28 5 41 9 30 10 -29 1 -289 -46 -415 -75 -58 -13 -114 -27
-125 -29 -11 -3 -6 2 10 10 46 22 183 64 297 89 l103 23 5 161 c4 143 7 164
26 189 41 55 78 68 194 68 116 0 153 -13 194 -68 18 -25 21 -45 24 -153 3
-110 6 -125 20 -122 15 3 18 22 22 131 l5 129 37 33 c20 19 56 39 80 46 60 16
174 7 223 -18 72 -37 80 -52 83 -169 3 -80 7 -104 18 -104 11 0 14 30 16 148
l3 147 93 3 92 3 0 -147 c0 -129 2 -145 16 -140 9 3 22 6 30 6 11 0 14 26 14
140 l0 141 92 -3 93 -3 3 -132 c2 -122 4 -133 21 -133 17 0 19 10 22 84 4 95
20 125 80 161 47 28 227 29 277 2 54 -29 72 -70 72 -159 l0 -78 55 0 55 0 0
70 0 70 -40 0 -41 0 3 58 3 57 37 3 37 3 3 72 3 72 93 3 92 3 0 -76 0 -75 50
0 50 0 0 -60 0 -60 -50 0 -50 0 0 -70 0 -70 70 0 70 0 0 63 c1 86 26 139 82
169 36 19 58 23 138 23 86 0 99 -3 143 -28 60 -36 77 -72 77 -167 0 -55 3 -70
15 -70 12 0 15 24 17 133 l3 132 89 3 c56 2 92 -1 96 -8 5 -8 15 -8 34 0 48
18 120 12 157 -13 50 -34 59 -59 59 -174 0 -84 3 -103 15 -103 12 0 15 25 17
148 l3 147 93 3 92 3 0 -160 0 -159 38 -6 c128 -18 135 -18 190 14 l52 30 0
76 c0 57 -3 76 -15 80 -33 13 -45 -15 -45 -102 l0 -84 -91 0 -91 0 4 111 3
111 37 33 c46 43 103 58 198 53 158 -8 189 -49 190 -249 0 -118 1 -127 20
-132 20 -5 20 0 20 274 l0 279 95 0 95 0 0 -295z m-2270 -421 l0 -215 -92 0
c-51 1 -121 -2 -155 -5 -82 -8 -130 2 -159 33 -23 25 -24 33 -24 154 l0 128
31 36 c59 67 108 80 307 83 l92 2 0 -216z m300 86 c0 -117 2 -132 20 -150 12
-12 33 -20 55 -20 l35 0 0 -65 0 -65 -100 0 c-118 0 -165 15 -181 57 -12 31
-25 332 -16 357 5 13 23 16 97 16 l90 0 0 -130z m330 -30 l5 -155 25 0 25 0 3
153 3 152 94 0 95 0 0 -158 c0 -181 -9 -212 -76 -246 -32 -17 -57 -21 -144
-21 -118 0 -152 12 -192 67 -21 31 -23 44 -26 201 l-4 168 94 -3 93 -3 5 -155z
m-1102 -62 l2 -208 -95 0 c-53 0 -95 4 -95 9 0 6 -16 3 -35 -5 -74 -31 -172
-8 -201 47 -11 23 -14 63 -12 186 l3 158 92 3 92 3 3 -143 3 -143 25 0 25 0 3
147 3 147 72 4 c39 2 81 3 92 3 19 -1 20 -9 23 -208z m1498 202 l74 0 0 -205
0 -205 -95 0 -95 0 0 203 c0 112 3 207 7 211 4 3 13 4 21 1 7 -3 47 -5 88 -5z
m-1966 -167 c0 -130 -2 -152 -20 -181 l-20 -33 20 -39 c11 -22 20 -42 20 -45
0 -3 -34 -5 -75 -5 -70 0 -76 2 -86 24 -10 21 -19 24 -83 28 -85 6 -141 30
-167 72 -16 26 -19 52 -19 164 l0 132 29 0 c15 0 56 3 90 6 l61 7 0 -109 c0
-134 5 -156 34 -152 20 3 21 10 26 133 l5 130 45 6 c25 3 66 7 93 7 l47 2 0
-147z m2483 137 l27 0 0 -190 0 -190 -95 0 -95 0 0 196 0 197 68 -6 c37 -4 79
-7 95 -7z m350 -36 l147 -17 0 -164 0 -164 -97 0 c-54 0 -130 -3 -169 -5 -144
-11 -178 29 -172 200 2 85 7 107 27 139 23 38 25 38 70 33 25 -3 112 -13 194
-22z m-2403 -444 c0 -17 -7 -20 -45 -20 -43 0 -45 -1 -45 -30 0 -29 2 -30 45
-30 38 0 45 -3 45 -20 0 -17 -7 -20 -45 -20 -45 0 -45 0 -45 -35 l0 -35 50 0
c43 0 50 -3 50 -20 0 -18 -7 -20 -75 -20 l-75 0 0 125 0 125 70 0 c63 0 70 -2
70 -20z m212 -64 l47 -80 3 80 c3 71 5 79 23 79 19 0 20 -8 23 -123 l3 -123
-28 3 c-23 2 -36 18 -78 89 l-50 85 0 -85 c0 -82 -1 -86 -22 -89 -23 -3 -23
-2 -23 116 0 65 3 122 7 126 21 20 50 -4 95 -78z m348 64 c0 -17 -7 -20 -45
-20 -43 0 -45 -1 -45 -30 0 -29 2 -30 45 -30 38 0 45 -3 45 -20 0 -17 -7 -20
-45 -20 -45 0 -45 0 -45 -35 l0 -35 50 0 c43 0 50 -3 50 -20 0 -18 -7 -20 -75
-20 l-75 0 0 125 0 125 70 0 c63 0 70 -2 70 -20z m263 -11 c22 -27 22 -51 -2
-80 -16 -20 -17 -26 -6 -44 8 -11 17 -37 21 -58 6 -37 5 -39 -17 -35 -17 2
-26 13 -34 38 -14 48 -23 60 -46 60 -16 0 -19 -7 -19 -50 0 -47 -2 -50 -25
-50 l-25 0 0 119 c0 86 4 121 13 125 6 3 37 4 67 1 41 -3 59 -10 73 -26z m285
25 c13 -4 22 -14 22 -26 0 -16 -5 -18 -35 -12 -72 13 -125 -38 -110 -105 8
-37 39 -61 77 -61 24 0 28 4 28 30 0 23 -4 30 -20 30 -13 0 -20 7 -20 20 0 17
7 20 45 20 l45 0 0 -64 c0 -72 -4 -76 -78 -76 -62 0 -106 28 -122 75 -35 107
56 199 168 169z m190 -121 l3 -123 -26 0 -25 0 0 126 c0 124 0 125 23 122 21
-3 22 -7 25 -125z m268 15 c20 -62 39 -119 42 -126 3 -10 -3 -13 -24 -10 -22
2 -30 10 -38 36 -8 29 -13 32 -46 32 -33 0 -38 -3 -46 -32 -7 -23 -17 -34 -32
-36 -12 -2 -22 2 -22 9 0 6 16 63 36 125 35 109 38 114 65 114 26 0 29 -5 65
-112z"/>
<path d="M697 2894 c-4 -4 -7 -49 -7 -101 l0 -93 30 0 31 0 -3 98 c-3 89 -5
97 -23 100 -12 2 -24 0 -28 -4z"/>
<path d="M1171 2881 c-6 -11 -11 -56 -11 -100 l0 -81 30 0 31 0 -3 97 c-3 82
-6 98 -20 101 -9 2 -21 -6 -27 -17z"/>
<path d="M2111 2881 c-6 -11 -11 -42 -11 -70 0 -50 1 -51 30 -51 l31 0 -3 67
c-2 54 -6 68 -20 71 -9 2 -21 -6 -27 -17z"/>
<path d="M2992 2888 c-7 -7 -12 -37 -12 -70 0 -58 0 -58 30 -58 l31 0 -3 67
c-3 70 -18 89 -46 61z"/>
<path d="M3463 2893 c-21 -8 -18 -149 3 -157 40 -15 44 -8 44 67 0 83 -11 105
-47 90z"/>
<path d="M2120 2570 c-17 -17 -20 -33 -20 -97 0 -86 8 -107 36 -101 17 3 19
15 22 111 3 112 -2 123 -38 87z"/>
<path d="M4161 2573 c-20 -16 -22 -26 -19 -108 3 -89 3 -90 28 -90 25 0 25 0
28 108 1 61 -1 107 -7 107 -5 0 -18 -8 -30 -17z"/>
<path d="M2560 2106 c0 -33 2 -36 30 -36 55 0 51 62 -4 68 -24 3 -26 0 -26
-32z"/>
<path d="M3323 2075 c-11 -34 -11 -35 17 -35 28 0 28 1 17 35 -6 19 -13 35
-17 35 -4 0 -11 -16 -17 -35z"/>
</g>
</svg>
